# xmcd
#
# Track frame offsets:
#	150
#	25018
#	49732
#	75084
#	100283
#	133235
#	166033
#	196146
#	226106
#	246648
#	267037
#	290003
#	312816
#	331059
#
# Disc length: 4653 seconds
#
# Revision: 1
# Processed by: cddbd v1.5.2PL0 Copyright (c) Steve Scherf et al.
# Submitted via: audiograbber 1.83.01
#
DISCID=b0122b0e
DTITLE=Cutty Blues - Live at Flavers, 20090306
DYEAR=2009
DGENRE=Blues
TTITLE0=Get Out of My Life (Live)
TTITLE1=Get Out of My Life (Live) 2
TTITLE2=Close Enough (Live)
TTITLE3=Close Enough (Live) 2
TTITLE4=You Can't Always Get What You Want (Live)
TTITLE5=You Can't Always Get What You Want (Live) 2
TTITLE6=Burnin' and Lootin' (Live)
TTITLE7=Burnin' and Lootin' (Live) 2
TTITLE8=Storm Bay (Live)
TTITLE9=Storm Bay (Live) 2
TTITLE10=I Got the Blues (Live)
TTITLE11=I Got the Blues (Live) 2
TTITLE12=Outside Woman Blues (Live)
TTITLE13=Outside Woman Blues (Live) 2
EXTD=
EXTT0=
EXTT1=
EXTT2=
EXTT3=
EXTT4=
EXTT5=
EXTT6=
EXTT7=
EXTT8=
EXTT9=
EXTT10=
EXTT11=
EXTT12=
EXTT13=
PLAYORDER=
